<svg viewBox="-768 -397 1536 794" width="1536" height="794" style="background-color: rgb(255, 255, 255);" xmlns="http://www.w3.org/2000/svg"><path d="M576.2530828609213,-304.19194036186605L576.2530828609213,-2.976110182734583M576.2530828609213,-2.976110182734583L560.3585272344195,0.3821821144506567M576.2530828609213,-2.976110182734583L605.7034245574453,-1.1636163149991399M589.8088689309437,2.1946759821860997L605.7034245574453,-1.1636163149991399M605.7034245574453,-302.37944649413055L605.7034245574453,-1.1636163149991399" style="fill:none;stroke:rgb(0,0,0);stroke-width:1;stroke-linecap:round"></path><path d="M605.7034245574454,-1.1636163149991563L576.2530828609214,-2.9761101827345997L576.2530828609214,-304.191940361866zM605.7034245574454,-1.1636163149991563L589.8088689309437,2.1946759821861055L576.2530828609214,-2.9761101827345997zM589.8088689309437,2.1946759821861055L560.3585272344196,0.3821821144506622L576.2530828609214,-2.9761101827345997z" style="fill:rgb(254,250,224); fill-opacity: 0.09"></path><path d="M560.3585272344195,-300.8336480646808L560.3585272344195,0.3821821144506567M560.3585272344195,0.3821821144506567L589.8088689309437,2.1946759821860997" style="fill:none;stroke:rgb(0,0,0);stroke-width:1;stroke-linecap:round"></path><path d="M576.2530828609214,-2.9761101827345997L560.3585272344196,0.3821821144506622L560.3585272344196,-300.83364806468074zM576.2530828609214,-304.191940361866L576.2530828609214,-2.9761101827345997L560.3585272344196,-300.83364806468074zM605.7034245574454,-302.3794464941306L605.7034245574454,-1.1636163149991563L576.2530828609214,-304.191940361866z" style="fill:rgb(254,250,224); fill-opacity: 0.09"></path><path d="M576.2530828609213,-304.19194036186605L560.3585272344195,-300.8336480646808M576.2530828609213,-304.19194036186605L605.7034245574453,-302.37944649413055" style="fill:none;stroke:rgb(0,0,0);stroke-width:1;stroke-linecap:round"></path><path d="M589.8088689309437,2.1946759821861055L605.7034245574454,-1.1636163149991563L605.7034245574454,-302.3794464941306z" style="fill:rgb(254,250,224); fill-opacity: 0.09"></path><path d="M589.8088689309436,-299.0211541969453L589.8088689309437,2.1946759821860997" style="fill:none;stroke:rgb(0,0,0);stroke-width:1;stroke-linecap:round"></path><path d="M605.7034245574454,-302.3794464941306L576.2530828609214,-304.191940361866L560.3585272344196,-300.83364806468074z" style="fill:rgb(254,250,224); fill-opacity: 0.09"></path><path d="M589.8088689309436,-299.0211541969453L605.7034245574453,-302.37944649413055" style="fill:none;stroke:rgb(0,0,0);stroke-width:1;stroke-linecap:round"></path><path d="M560.3585272344196,0.3821821144506622L589.8088689309437,2.1946759821861055L589.8088689309437,-299.0211541969453zM560.3585272344196,-300.83364806468074L560.3585272344196,0.3821821144506622L589.8088689309437,-299.0211541969453zM589.8088689309437,-299.0211541969453L589.8088689309437,2.1946759821861055L605.7034245574454,-302.3794464941306z" style="fill:rgb(254,250,224); fill-opacity: 0.09"></path><path d="M560.3585272344195,-300.8336480646808L589.8088689309436,-299.0211541969453" style="fill:none;stroke:rgb(0,0,0);stroke-width:1;stroke-linecap:round"></path><path d="M589.8088689309437,-299.0211541969453L605.7034245574454,-302.3794464941306L560.3585272344196,-300.83364806468074z" style="fill:rgb(254,250,224); fill-opacity: 0.09"></path><path d="M562.0312981879231,-140.68740201971065L552.8475802703597,-133.71994793616562L572.999062057567,-148.87903226134395zM558.523429864772,-153.09138662162093L562.0312981879231,-140.68740201971065L572.999062057567,-148.87903226134395zM547.1717306759475,-153.79001638219006L543.6638623527965,-141.81780876202424L552.8475802703597,-144.6213123443423zM543.6638623527965,-141.81780876202424L552.8475802703597,-133.71994793616562L552.8475802703597,-144.6213123443423z" style="fill:rgb(0,0,0)"></path><path d="M516.7138887898504,-136.9867800793738L552.8475802703598,-144.6213123443423" style="fill:none;stroke:rgb(0,0,0);stroke-width:1;stroke-linecap:round"></path><path d="M558.523429864772,-153.09138662162093L547.1717306759475,-153.79001638219006L552.8475802703597,-144.6213123443423zM552.8475802703597,-133.71994793616562L562.0312981879231,-140.68740201971065L552.8475802703597,-144.6213123443423zM562.0312981879231,-140.68740201971065L558.523429864772,-153.09138662162093L552.8475802703597,-144.6213123443423z" style="fill:rgb(0,0,0)"></path><path d="M499.9040819164737,-303.6900800111943L499.90408191647373,28.784933544518097M499.90408191647373,28.784933544518097L484.0095262899721,32.143225841703334M499.90408191647373,28.784933544518097L529.3544236129977,30.59742741225354M513.4598679864962,33.95571970943878L529.3544236129977,30.59742741225354M529.3544236129977,-301.8775861434589L529.3544236129977,30.59742741225354" style="fill:none;stroke:rgb(0,0,0);stroke-width:1;stroke-linecap:round"></path><path d="M529.3544236129977,30.597427412253523L499.90408191647373,28.78493354451808L499.90408191647373,-303.69008001119437zM529.3544236129977,30.597427412253523L513.4598679864961,33.95571970943878L499.90408191647373,28.78493354451808zM513.4598679864961,33.95571970943878L484.0095262899721,32.14322584170334L499.90408191647373,28.78493354451808z" style="fill:rgb(254,250,224); fill-opacity: 0.09"></path><path d="M484.0095262899721,-300.33178771400907L484.0095262899721,32.143225841703334M484.0095262899721,32.143225841703334L513.4598679864962,33.95571970943878" style="fill:none;stroke:rgb(0,0,0);stroke-width:1;stroke-linecap:round"></path><path d="M499.90408191647373,28.78493354451808L484.0095262899721,32.14322584170334L484.0095262899721,-300.33178771400907zM499.90408191647373,-303.69008001119437L499.90408191647373,28.78493354451808L484.0095262899721,-300.33178771400907zM529.3544236129977,-301.87758614345887L529.3544236129977,30.597427412253523L499.90408191647373,-303.69008001119437z" style="fill:rgb(254,250,224); fill-opacity: 0.09"></path><path d="M499.9040819164737,-303.6900800111943L484.0095262899721,-300.33178771400907M499.9040819164737,-303.6900800111943L529.3544236129977,-301.8775861434589" style="fill:none;stroke:rgb(0,0,0);stroke-width:1;stroke-linecap:round"></path><path d="M513.4598679864961,33.95571970943878L529.3544236129977,30.597427412253523L529.3544236129977,-301.87758614345887z" style="fill:rgb(254,250,224); fill-opacity: 0.09"></path><path d="M513.4598679864961,-298.5192938462737L513.4598679864962,33.95571970943878" style="fill:none;stroke:rgb(0,0,0);stroke-width:1;stroke-linecap:round"></path><path d="M484.0095262899721,32.14322584170334L513.4598679864961,33.95571970943878L513.4598679864961,-298.5192938462736zM529.3544236129977,-301.87758614345887L499.90408191647373,-303.69008001119437L484.0095262899721,-300.33178771400907z" style="fill:rgb(254,250,224); fill-opacity: 0.09"></path><path d="M513.4598679864961,-298.5192938462737L529.3544236129977,-301.8775861434589" style="fill:none;stroke:rgb(0,0,0);stroke-width:1;stroke-linecap:round"></path><path d="M484.0095262899721,-300.33178771400907L484.0095262899721,32.14322584170334L513.4598679864961,-298.5192938462736zM513.4598679864961,-298.5192938462736L513.4598679864961,33.95571970943878L529.3544236129977,-301.87758614345887z" style="fill:rgb(254,250,224); fill-opacity: 0.09"></path><path d="M484.0095262899721,-300.33178771400907L513.4598679864961,-298.5192938462737" style="fill:none;stroke:rgb(0,0,0);stroke-width:1;stroke-linecap:round"></path><path d="M513.4598679864961,-298.5192938462736L529.3544236129977,-301.87758614345887L484.0095262899721,-300.33178771400907z" style="fill:rgb(254,250,224); fill-opacity: 0.09"></path><path d="M485.68229724347543,-124.55594998074845L476.49857932591226,-117.58849589720344L496.6500611131194,-132.74758022238177zM482.1744289203245,-136.95993458265872L485.68229724347543,-124.55594998074845L496.6500611131194,-132.74758022238177zM470.82272973150003,-137.65856434322785L467.3148614083491,-125.68635672306208L476.49857932591226,-128.48986030538012zM467.3148614083491,-125.68635672306208L476.49857932591226,-117.58849589720344L476.49857932591226,-128.48986030538012z" style="fill:rgb(0,0,0)"></path><path d="M440.3648878454029,-120.8553280404116L476.49857932591226,-128.48986030538012" style="fill:none;stroke:rgb(0,0,0);stroke-width:1;stroke-linecap:round"></path><path d="M482.1744289203245,-136.95993458265872L470.82272973150003,-137.65856434322785L476.49857932591226,-128.48986030538012zM476.49857932591226,-117.58849589720344L485.68229724347543,-124.55594998074845L476.49857932591226,-128.48986030538012zM485.68229724347543,-124.55594998074845L482.1744289203245,-136.95993458265872L476.49857932591226,-128.48986030538012z" style="fill:rgb(0,0,0)"></path><path d="M423.5550809720261,-287.5586279722321L423.5550809720262,44.916385583480285M423.5550809720262,44.916385583480285L407.6605253455245,48.27467788066552M423.5550809720262,44.916385583480285L453.0054226685502,46.728879451215725M437.11086704204854,50.08717174840096L453.0054226685502,46.728879451215725M453.0054226685502,-285.74613410449666L453.0054226685502,46.728879451215725" style="fill:none;stroke:rgb(0,0,0);stroke-width:1;stroke-linecap:round"></path><path d="M453.0054226685502,46.72887945121573L423.5550809720262,44.91638558348029L423.5550809720262,-287.5586279722321zM453.0054226685502,46.72887945121573L437.11086704204854,50.08717174840096L423.5550809720262,44.91638558348029zM437.11086704204854,50.08717174840096L407.66052534552455,48.27467788066553L423.5550809720262,44.91638558348029z" style="fill:rgb(254,250,224); fill-opacity: 0.09"></path><path d="M407.6605253455245,-284.20033567504686L407.6605253455245,48.27467788066552M407.6605253455245,48.27467788066552L437.11086704204854,50.08717174840096" style="fill:none;stroke:rgb(0,0,0);stroke-width:1;stroke-linecap:round"></path><path d="M423.5550809720262,44.91638558348029L407.66052534552455,48.27467788066553L407.66052534552455,-284.20033567504686zM423.5550809720262,-287.5586279722321L423.5550809720262,44.91638558348029L407.66052534552455,-284.20033567504686zM453.0054226685502,-285.74613410449666L453.0054226685502,46.72887945121573L423.5550809720262,-287.5586279722321z" style="fill:rgb(254,250,224); fill-opacity: 0.09"></path><path d="M423.5550809720261,-287.5586279722321L407.6605253455245,-284.20033567504686M423.5550809720261,-287.5586279722321L453.0054226685502,-285.74613410449666" style="fill:none;stroke:rgb(0,0,0);stroke-width:1;stroke-linecap:round"></path><path d="M437.11086704204854,50.08717174840096L453.0054226685502,46.72887945121573L453.0054226685502,-285.74613410449666z" style="fill:rgb(254,250,224); fill-opacity: 0.09"></path><path d="M437.1108670420485,-282.3878418073114L437.11086704204854,50.08717174840096" style="fill:none;stroke:rgb(0,0,0);stroke-width:1;stroke-linecap:round"></path><path d="M407.66052534552455,48.27467788066553L437.11086704204854,50.08717174840096L437.11086704204854,-282.3878418073114zM453.0054226685502,-285.74613410449666L423.5550809720262,-287.5586279722321L407.66052534552455,-284.20033567504686z" style="fill:rgb(254,250,224); fill-opacity: 0.09"></path><path d="M437.1108670420485,-282.3878418073114L453.0054226685502,-285.74613410449666" style="fill:none;stroke:rgb(0,0,0);stroke-width:1;stroke-linecap:round"></path><path d="M407.66052534552455,-284.20033567504686L407.66052534552455,48.27467788066553L437.11086704204854,-282.3878418073114zM437.11086704204854,-282.3878418073114L437.11086704204854,50.08717174840096L453.0054226685502,-285.74613410449666z" style="fill:rgb(254,250,224); fill-opacity: 0.09"></path><path d="M407.6605253455245,-284.20033567504686L437.1108670420485,-282.3878418073114" style="fill:none;stroke:rgb(0,0,0);stroke-width:1;stroke-linecap:round"></path><path d="M437.11086704204854,-282.3878418073114L453.0054226685502,-285.74613410449666L407.66052534552455,-284.20033567504686z" style="fill:rgb(254,250,224); fill-opacity: 0.09"></path><path d="M409.3332962990279,-108.42449794178627L400.1495783814647,-101.45704385824126L420.30106016867194,-116.61612818341958zM405.82542797587683,-120.82848254369654L409.3332962990279,-108.42449794178627L420.30106016867194,-116.61612818341958zM394.47372878705255,-121.52711230426567L390.9658604639015,-109.5549046840999L400.1495783814647,-112.35840826641792zM390.9658604639015,-109.5549046840999L400.1495783814647,-101.45704385824126L400.1495783814647,-112.35840826641792z" style="fill:rgb(0,0,0)"></path><path d="M364.0158869009554,-104.72387600144943L400.1495783814648,-112.35840826641792" style="fill:none;stroke:rgb(0,0,0);stroke-width:1;stroke-linecap:round"></path><path d="M405.82542797587683,-120.82848254369654L394.47372878705255,-121.52711230426567L400.1495783814647,-112.35840826641792zM400.1495783814647,-101.45704385824126L409.3332962990279,-108.42449794178627L400.1495783814647,-112.35840826641792zM409.3332962990279,-108.42449794178627L405.82542797587683,-120.82848254369654L400.1495783814647,-112.35840826641792z" style="fill:rgb(0,0,0)"></path><path d="M299.49436577727806,-167.47297367267234L299.49436577727806,-44.44260288427601M299.49436577727806,-44.44260288427601L183.8975975845387,-20.01865890474688M299.49436577727806,-44.44260288427601L408.4735806655426,-37.73557854034742M299.49436577727806,-167.47297367267234L183.8975975845387,-143.04902969314318M299.49436577727806,-167.47297367267234L408.4735806655426,-160.76594932874374" style="fill:none;stroke:rgb(0,0,0);stroke-width:1;stroke-linecap:round"></path><path d="M408.4735806655426,-37.73557854034745L299.49436577727806,-44.442602884276035L299.49436577727806,-167.47297367267237zM408.4735806655426,-160.7659493287438L408.4735806655426,-37.73557854034745L299.49436577727806,-167.47297367267237z" style="fill:rgb(254,250,224); fill-opacity: 0.09"></path><path d="M292.8768124728033,-13.311634560818293L408.4735806655426,-37.73557854034742M408.4735806655426,-160.76594932874374L408.4735806655426,-37.73557854034742M292.8768124728033,-136.34200534921462L408.4735806655426,-160.76594932874374" style="fill:none;stroke:rgb(0,0,0);stroke-width:1;stroke-linecap:round"></path><path d="M299.49436577727806,-167.47297367267237L299.49436577727806,-44.442602884276035L183.8975975845387,-143.0490296931432zM408.4735806655426,-160.7659493287438L299.49436577727806,-167.47297367267237L183.8975975845387,-143.0490296931432zM408.4735806655426,-37.73557854034745L292.8768124728033,-13.311634560818298L299.49436577727806,-44.442602884276035zM292.8768124728033,-13.311634560818298L408.4735806655426,-37.73557854034745L408.4735806655426,-160.7659493287438zM299.49436577727806,-44.442602884276035L183.8975975845387,-20.018658904746886L183.8975975845387,-143.0490296931432zM292.8768124728033,-13.311634560818298L183.8975975845387,-20.018658904746886L299.49436577727806,-44.442602884276035zM292.8768124728033,-136.34200534921465L408.4735806655426,-160.7659493287438L183.8975975845387,-143.0490296931432zM292.8768124728033,-136.34200534921465L292.8768124728033,-13.311634560818298L408.4735806655426,-160.7659493287438z" style="fill:rgb(254,250,224); fill-opacity: 0.09"></path><path d="M183.8975975845387,-143.04902969314318L183.8975975845387,-20.01865890474688M183.8975975845387,-20.01865890474688L292.8768124728033,-13.311634560818293M183.8975975845387,-143.04902969314318L292.8768124728033,-136.34200534921462M138.4807836850753,-38.801401638391525L205.30036923171377,-43.996999850685945M138.4807836850753,-24.429751817172495L205.30036923171377,-43.996999850685945M151.21106221331002,-23.646278674322243L205.30036923171377,-43.996999850685945M151.21106221331002,-38.01792849554128L205.30036923171377,-43.996999850685945" style="fill:none;stroke:rgb(0,0,0);stroke-width:1;stroke-linecap:round"></path><path d="M183.8975975845387,-143.0490296931432L183.8975975845387,-20.018658904746886L292.8768124728033,-136.34200534921465zM183.8975975845387,-20.018658904746886L292.8768124728033,-13.311634560818298L292.8768124728033,-136.34200534921465z" style="fill:rgb(254,250,224); fill-opacity: 0.09"></path><path d="M292.8768124728033,-136.34200534921462L292.8768124728033,-13.311634560818293" style="fill:none;stroke:rgb(0,0,0);stroke-width:1;stroke-linecap:round"></path><path d="M138.48078092035516,-24.429752457049382L138.48078092035516,-38.80139993953583L205.30036543117927,-43.996999384944765zM151.2110592187604,-23.64627932834377L138.48078092035516,-24.429752457049382L205.30036543117927,-43.996999384944765zM138.48078092035516,-38.80139993953583L151.2110592187604,-38.01792681083021L205.30036543117927,-43.996999384944765zM151.2110592187604,-38.01792681083021L151.2110592187604,-23.64627932834377L205.30036543117927,-43.996999384944765z" style="fill:rgb(204,213,174); fill-opacity: 0.4"></path><path d="M123.44315073937597,-130.2758696286872L123.44315073937597,-7.245498840290869M123.44315073937597,-7.245498840290869L-0.6060856524366474,18.964330791670232M123.44315073937597,-7.245498840290869L232.42236562764052,-0.5384744963622844M138.4807836850753,-38.801401638391525L138.4807836850753,-24.429751817172495M138.4807836850753,-24.429751817172495L151.21106221331002,-23.646278674322243M138.48077916307878,-38.801399729331784L138.48077916307878,-24.429751987383M138.48077916307878,-24.429751987383L14.431542771266162,1.7800776445781061M138.48077916307878,-24.429751987383L151.2110576913135,-23.64627884453275M138.4807836850753,-38.801401638391525L151.21106221331002,-38.01792849554128M138.48077916307878,-38.801399729331784L14.431542771266162,-12.591570097370676M138.48077916307878,-38.801399729331784L151.2110576913135,-38.01792658648153" style="fill:none;stroke:rgb(0,0,0);stroke-width:1;stroke-linecap:round"></path><path d="M138.48078092035516,-38.80139993953583L138.48078092035516,-24.429752457049382L151.2110592187604,-23.64627932834377z" style="fill:rgb(204,213,174); fill-opacity: 0.4"></path><path d="M151.2110576913135,-23.646278844532745L138.4807791630787,-24.429751987383L138.4807791630787,-38.80139972933179z" style="fill:rgb(212,163,115); fill-opacity: 0.4"></path><path d="M123.44315073937597,-130.2758696286872L-0.6060856524366474,-104.06603999672609M123.44315073937597,-130.2758696286872L232.42236562764052,-123.56884528475861" style="fill:none;stroke:rgb(0,0,0);stroke-width:1;stroke-linecap:round"></path><path d="M138.48078092035516,-38.80139993953583L151.2110592187604,-23.64627932834377L151.2110592187604,-38.01792681083021z" style="fill:rgb(204,213,174); fill-opacity: 0.4"></path><path d="M151.2110576913135,-38.017926586481536L151.2110576913135,-23.646278844532745L138.4807791630787,-38.80139972933179z" style="fill:rgb(212,163,115); fill-opacity: 0.4"></path><path d="M151.21106221331002,-23.646278674322243L151.21106221331002,-38.01792849554128M27.16182129950088,2.5635507874283596L151.2110576913135,-23.64627884453275M151.2110576913135,-38.01792658648153L151.2110576913135,-23.64627884453275M27.16182129950088,-11.808096954520423L151.2110576913135,-38.01792658648153" style="fill:none;stroke:rgb(0,0,0);stroke-width:1;stroke-linecap:round"></path><path d="M232.4223656276405,-0.53847449636229L123.44315073937591,-7.245498840290875L123.44315073937591,-130.27586962868722zM232.4223656276405,-123.56884528475862L232.4223656276405,-0.53847449636229L123.44315073937591,-130.27586962868722z" style="fill:rgb(254,250,224); fill-opacity: 0.09"></path><path d="M108.3731292358279,25.671355135598816L232.42236562764052,-0.5384744963622844M232.42236562764052,-123.56884528475861L232.42236562764052,-0.5384744963622844M108.3731292358279,-97.35901565279751L232.42236562764052,-123.56884528475861" style="fill:none;stroke:rgb(0,0,0);stroke-width:1;stroke-linecap:round"></path><path d="M123.44315073937591,-130.27586962868722L123.44315073937591,-7.245498840290875L-0.60608565243669,-104.06603999672609z" style="fill:rgb(254,250,224); fill-opacity: 0.09"></path><path d="M138.4807791630787,-38.80139972933179L138.4807791630787,-24.429751987383L14.431542771266098,-12.59157009737068zM151.2110576913135,-38.017926586481536L138.4807791630787,-38.80139972933179L14.431542771266098,-12.59157009737068zM151.2110576913135,-23.646278844532745L27.161821299500836,2.563550787428357L138.4807791630787,-24.429751987383zM27.161821299500836,2.563550787428357L151.2110576913135,-23.646278844532745L151.2110576913135,-38.017926586481536z" style="fill:rgb(212,163,115); fill-opacity: 0.4"></path><path d="M232.4223656276405,-123.56884528475862L123.44315073937591,-130.27586962868722L-0.60608565243669,-104.06603999672609zM232.4223656276405,-0.53847449636229L108.37312923582789,25.671355135598812L123.44315073937591,-7.245498840290875zM108.37312923582789,25.671355135598812L232.4223656276405,-0.53847449636229L232.4223656276405,-123.56884528475862zM123.44315073937591,-7.245498840290875L-0.60608565243669,18.96433079167023L-0.60608565243669,-104.06603999672609z" style="fill:rgb(254,250,224); fill-opacity: 0.09"></path><path d="M138.4807791630787,-24.429751987383L14.431542771266098,1.7800776445781032L14.431542771266098,-12.59157009737068zM27.161821299500836,2.563550787428357L14.431542771266098,1.7800776445781032L138.4807791630787,-24.429751987383zM27.161821299500836,-11.808096954520426L151.2110576913135,-38.017926586481536L14.431542771266098,-12.59157009737068zM27.161821299500836,-11.808096954520426L27.161821299500836,2.563550787428357L151.2110576913135,-38.017926586481536z" style="fill:rgb(212,163,115); fill-opacity: 0.4"></path><path d="M108.37312923582789,25.671355135598812L-0.60608565243669,18.96433079167023L123.44315073937591,-7.245498840290875zM108.37312923582789,-97.35901565279751L232.4223656276405,-123.56884528475862L-0.60608565243669,-104.06603999672609zM108.37312923582789,-97.35901565279751L108.37312923582789,25.671355135598812L232.4223656276405,-123.56884528475862z" style="fill:rgb(254,250,224); fill-opacity: 0.09"></path><path d="M-0.6060856524366474,-104.06603999672609L-0.6060856524366474,18.964330791670232M-0.6060856524366474,18.964330791670232L108.3731292358279,25.671355135598816M14.431542771266162,-12.591570097370676L14.431542771266162,1.7800776445781061M14.431542771266162,1.7800776445781061L27.16182129950088,2.5635507874283596M14.431542771266162,-12.591570097370676L27.16182129950088,-11.808096954520423" style="fill:none;stroke:rgb(0,0,0);stroke-width:1;stroke-linecap:round"></path><path d="M14.431542771266098,-12.59157009737068L14.431542771266098,1.7800776445781032L27.161821299500836,-11.808096954520426z" style="fill:rgb(212,163,115); fill-opacity: 0.4"></path><path d="M-0.6060856524366474,-104.06603999672609L108.3731292358279,-97.35901565279751" style="fill:none;stroke:rgb(0,0,0);stroke-width:1;stroke-linecap:round"></path><path d="M14.431542771266098,1.7800776445781032L27.161821299500836,2.563550787428357L27.161821299500836,-11.808096954520426z" style="fill:rgb(212,163,115); fill-opacity: 0.4"></path><path d="M27.16182129950088,-11.808096954520423L27.16182129950088,2.5635507874283596" style="fill:none;stroke:rgb(0,0,0);stroke-width:1;stroke-linecap:round"></path><path d="M-0.60608565243669,-104.06603999672609L-0.60608565243669,18.96433079167023L108.37312923582789,-97.35901565279751z" style="fill:rgb(254,250,224); fill-opacity: 0.09"></path><path d="M-10.860093190532343,-25.345126708950193L55.95949143520646,-30.54072614751002M-10.860093190532343,-10.973479616773366L55.95949143520646,-30.54072614751002M1.870184877252584,-10.190006502261065L55.95949143520646,-30.54072614751002M1.870184877252584,-24.561653594437892L55.95949143520646,-30.54072614751002" style="fill:none;stroke:rgb(0,0,0);stroke-width:1;stroke-linecap:round"></path><path d="M-0.60608565243669,18.96433079167023L108.37312923582789,25.671355135598812L108.37312923582789,-97.35901565279751z" style="fill:rgb(254,250,224); fill-opacity: 0.09"></path><path d="M108.3731292358279,-97.35901565279751L108.3731292358279,25.671355135598816" style="fill:none;stroke:rgb(0,0,0);stroke-width:1;stroke-linecap:round"></path><path d="M-10.860100281055498,-10.973477786034625L-10.860100281055498,-25.34512526852107L55.95948422976859,-30.540724713929986zM1.8701780173497728,-10.190004657329013L-10.860100281055498,-10.973477786034625L55.95948422976859,-30.540724713929986zM-10.860100281055498,-25.34512526852107L1.8701780173497728,-24.56165213981545L55.95948422976859,-30.540724713929986z" style="fill:rgb(204,213,174); fill-opacity: 0.4"></path><path d="M-61.060534298781505,-91.29287955170608L-61.060534298781505,31.73749123669026M-61.060534298781505,31.73749123669026L-185.10977069059413,57.94732086865135M-61.060534298781505,31.73749123669026L47.918680589483046,38.44451558061885" style="fill:none;stroke:rgb(0,0,0);stroke-width:1;stroke-linecap:round"></path><path d="M1.8701780173497728,-24.56165213981545L1.8701780173497728,-10.190004657329013L55.95948422976859,-30.540724713929986z" style="fill:rgb(204,213,174); fill-opacity: 0.4"></path><path d="M-61.060534298781505,-91.29287955170608L-185.10977069059413,-65.08304991974497M-61.060534298781505,-91.29287955170608L47.918680589483046,-84.58585520777748" style="fill:none;stroke:rgb(0,0,0);stroke-width:1;stroke-linecap:round"></path><path d="M47.918680589483074,38.44451558061885L-61.060534298781505,31.73749123669026L-61.060534298781505,-91.29287955170608z" style="fill:rgb(254,250,224); fill-opacity: 0.09"></path><path d="M-10.860093190532343,-25.345126708950193L-10.860093190532343,-10.973479616773366M-10.860093190532343,-10.973479616773366L1.870184877252584,-10.190006502261065M-10.860102038331913,-25.345125058317024L-10.860102038331913,-10.973477316368237M-10.860102038331913,-10.973477316368237L-134.90933843014452,15.23635231559287M-10.860102038331913,-10.973477316368237L1.870176489902804,-10.190004173517984M-10.860093190532343,-25.345126708950193L1.870184877252584,-24.561653594437892M-10.860102038331913,-25.345125058317024L-134.90933843014452,0.8647045736440873M-10.860102038331913,-25.345125058317024L1.870176489902804,-24.56165191546677" style="fill:none;stroke:rgb(0,0,0);stroke-width:1;stroke-linecap:round"></path><path d="M-10.860100281055498,-25.34512526852107L-10.860100281055498,-10.973477786034625L1.8701780173497728,-10.190004657329013z" style="fill:rgb(204,213,174); fill-opacity: 0.4"></path><path d="M1.870176489902804,-10.190004173517982L-10.860102038331892,-10.973477316368236L-10.860102038331892,-25.345125058317016z" style="fill:rgb(212,163,115); fill-opacity: 0.4"></path><path d="M-10.860100281055498,-25.34512526852107L1.8701780173497728,-10.190004657329013L1.8701780173497728,-24.56165213981545z" style="fill:rgb(204,213,174); fill-opacity: 0.4"></path><path d="M1.870176489902804,-24.561651915466765L1.870176489902804,-10.190004173517982L-10.860102038331892,-25.345125058317016z" style="fill:rgb(212,163,115); fill-opacity: 0.4"></path><path d="M1.870184877252584,-10.190006502261065L1.870184877252584,-24.561653594437892M-122.17905990190981,16.019825458443123L1.870176489902804,-10.190004173517984M1.870176489902804,-24.56165191546677L1.870176489902804,-10.190004173517984M-122.17905990190981,1.6481777164943407L1.870176489902804,-24.56165191546677" style="fill:none;stroke:rgb(0,0,0);stroke-width:1;stroke-linecap:round"></path><path d="M47.918680589483074,-84.58585520777748L47.918680589483074,38.44451558061885L-61.060534298781505,-91.29287955170608z" style="fill:rgb(254,250,224); fill-opacity: 0.09"></path><path d="M-76.13055580232958,64.65434521257994L47.918680589483046,38.44451558061885M47.918680589483046,-84.58585520777748L47.918680589483046,38.44451558061885M-76.13055580232958,-58.376025575816385L47.918680589483046,-84.58585520777748" style="fill:none;stroke:rgb(0,0,0);stroke-width:1;stroke-linecap:round"></path><path d="M-61.060534298781505,-91.29287955170608L-61.060534298781505,31.73749123669026L-185.1097706905941,-65.08304991974497z" style="fill:rgb(254,250,224); fill-opacity: 0.09"></path><path d="M-10.860102038331892,-25.345125058317016L-10.860102038331892,-10.973477316368236L-134.90933843014452,0.8647045736440845z" style="fill:rgb(212,163,115); fill-opacity: 0.4"></path><path d="M47.918680589483074,-84.58585520777748L-61.060534298781505,-91.29287955170608L-185.1097706905941,-65.08304991974497z" style="fill:rgb(254,250,224); fill-opacity: 0.09"></path><path d="M1.870176489902804,-24.561651915466765L-10.860102038331892,-25.345125058317016L-134.90933843014452,0.8647045736440845zM1.870176489902804,-10.190004173517982L-122.1790599019098,16.019825458443123L-10.860102038331892,-10.973477316368236z" style="fill:rgb(212,163,115); fill-opacity: 0.4"></path><path d="M47.918680589483074,38.44451558061885L-76.13055580232958,64.65434521257994L-61.060534298781505,31.73749123669026z" style="fill:rgb(254,250,224); fill-opacity: 0.09"></path><path d="M-122.1790599019098,16.019825458443123L1.870176489902804,-10.190004173517982L1.870176489902804,-24.561651915466765z" style="fill:rgb(212,163,115); fill-opacity: 0.4"></path><path d="M-76.13055580232958,64.65434521257994L47.918680589483074,38.44451558061885L47.918680589483074,-84.58585520777748zM-61.060534298781505,31.73749123669026L-185.1097706905941,57.94732086865135L-185.1097706905941,-65.08304991974497zM-76.13055580232958,64.65434521257994L-185.1097706905941,57.94732086865135L-61.060534298781505,31.73749123669026z" style="fill:rgb(254,250,224); fill-opacity: 0.09"></path><path d="M-10.860102038331892,-10.973477316368236L-134.90933843014452,15.23635231559287L-134.90933843014452,0.8647045736440845zM-122.1790599019098,16.019825458443123L-134.90933843014452,15.23635231559287L-10.860102038331892,-10.973477316368236zM-122.1790599019098,1.648177716494338L1.870176489902804,-24.561651915466765L-134.90933843014452,0.8647045736440845zM-122.1790599019098,1.648177716494338L-122.1790599019098,16.019825458443123L1.870176489902804,-24.561651915466765z" style="fill:rgb(212,163,115); fill-opacity: 0.4"></path><path d="M-76.13055580232958,-58.376025575816385L47.918680589483074,-84.58585520777748L-185.1097706905941,-65.08304991974497zM-76.13055580232958,-58.376025575816385L-76.13055580232958,64.65434521257994L47.918680589483074,-84.58585520777748z" style="fill:rgb(254,250,224); fill-opacity: 0.09"></path><path d="M-185.10977069059413,-65.08304991974497L-185.10977069059413,57.94732086865135M-185.10977069059413,57.94732086865135L-76.13055580232958,64.65434521257994M-185.10977069059413,-65.08304991974497L-76.13055580232958,-58.376025575816385" style="fill:none;stroke:rgb(0,0,0);stroke-width:1;stroke-linecap:round"></path><path d="M-185.1097706905941,-65.08304991974497L-185.1097706905941,57.94732086865135L-76.13055580232958,-58.376025575816385z" style="fill:rgb(254,250,224); fill-opacity: 0.09"></path><path d="M-134.90933843014452,0.8647045736440873L-134.90933843014452,15.23635231559287M-134.90933843014452,15.23635231559287L-122.17905990190981,16.019825458443123M-134.90933843014452,0.8647045736440873L-122.17905990190981,1.6481777164943407" style="fill:none;stroke:rgb(0,0,0);stroke-width:1;stroke-linecap:round"></path><path d="M-134.90933843014452,0.8647045736440845L-134.90933843014452,15.23635231559287L-122.1790599019098,1.648177716494338zM-134.90933843014452,15.23635231559287L-122.1790599019098,16.019825458443123L-122.1790599019098,1.648177716494338z" style="fill:rgb(212,163,115); fill-opacity: 0.4"></path><path d="M-122.17905990190981,1.6481777164943407L-122.17905990190981,16.019825458443123M-196.5583824426531,-46.8634950619763L-129.93424683889413,-40.56196309040242M-196.5583824426531,-32.49184524075728L-129.93424683889413,-40.56196309040242M-183.8281039144184,-31.708372097907027L-129.93424683889413,-40.56196309040242M-183.8281039144184,-46.080021919126054L-129.93424683889413,-40.56196309040242" style="fill:none;stroke:rgb(0,0,0);stroke-width:1;stroke-linecap:round"></path><path d="M-185.1097706905941,57.94732086865135L-76.13055580232958,64.65434521257994L-76.13055580232958,-58.376025575816385z" style="fill:rgb(254,250,224); fill-opacity: 0.09"></path><path d="M-76.13055580232958,-58.376025575816385L-76.13055580232958,64.65434521257994M-261.0911373924176,-70.79435167396602L-261.0911373924176,87.29376309111935M-261.0911373924176,87.29376309111935L-376.6879055851569,111.71770707064846M-261.0911373924176,87.29376309111935L-121.0580827908316,95.91196709571304" style="fill:none;stroke:rgb(0,0,0);stroke-width:1;stroke-linecap:round"></path><path d="M-196.55838073993027,-32.49184658742241L-196.55838073993027,-46.86349406990884L-129.93424927183807,-40.56196077090835zM-183.828102441525,-31.70837345871679L-196.55838073993027,-32.49184658742241L-129.93424927183807,-40.56196077090835zM-196.55838073993027,-46.86349406990884L-183.828102441525,-46.08002094120323L-129.93424927183807,-40.56196077090835zM-183.828102441525,-46.08002094120323L-183.828102441525,-31.70837345871679L-129.93424927183807,-40.56196077090835z" style="fill:rgb(204,213,174); fill-opacity: 0.4"></path><path d="M-261.0911373924176,-70.79435167396602L-376.6879055851569,-46.3704076944369M-261.0911373924176,-70.79435167396602L-121.0580827908316,-62.17614766937233" style="fill:none;stroke:rgb(0,0,0);stroke-width:1;stroke-linecap:round"></path><path d="M-121.05808279083159,95.91196709571304L-261.0911373924175,87.29376309111935L-261.0911373924175,-70.79435167396602z" style="fill:rgb(254,250,224); fill-opacity: 0.09"></path><path d="M-196.55838069602459,-46.86349424026882L-196.55838069602459,-32.49184649832004M-196.55838069602459,-32.49184649832004L-312.1551488887639,-8.067902518790902M-196.55838069602459,-32.49184649832004L-183.82810216778987,-31.708373355469785M-196.5583824426531,-46.8634950619763L-196.5583824426531,-32.49184524075728M-196.5583824426531,-32.49184524075728L-183.8281039144184,-31.708372097907027M-196.55838069602459,-46.86349424026882L-312.1551488887639,-22.439550260739686M-196.55838069602459,-46.86349424026882L-183.82810216778987,-46.08002109741857M-196.5583824426531,-46.8634950619763L-183.8281039144184,-46.080021919126054" style="fill:none;stroke:rgb(0,0,0);stroke-width:1;stroke-linecap:round"></path><path d="M-183.82810216778984,-31.708373355469785L-196.55838069602456,-32.49184649832004L-196.55838069602456,-46.86349424026882z" style="fill:rgb(212,163,115); fill-opacity: 0.4"></path><path d="M-196.55838073993027,-46.86349406990884L-196.55838073993027,-32.49184658742241L-183.828102441525,-31.70837345871679z" style="fill:rgb(204,213,174); fill-opacity: 0.4"></path><path d="M-183.82810216778984,-46.08002109741857L-183.82810216778984,-31.708373355469785L-196.55838069602456,-46.86349424026882z" style="fill:rgb(212,163,115); fill-opacity: 0.4"></path><path d="M-196.55838073993027,-46.86349406990884L-183.828102441525,-31.70837345871679L-183.828102441525,-46.08002094120323z" style="fill:rgb(204,213,174); fill-opacity: 0.4"></path><path d="M-299.4248703605292,-7.284429375940649L-183.82810216778987,-31.708373355469785M-183.82810216778987,-46.08002109741857L-183.82810216778987,-31.708373355469785M-183.8281039144184,-31.708372097907027L-183.8281039144184,-46.080021919126054M-299.4248703605292,-21.65607711788943L-183.82810216778987,-46.08002109741857" style="fill:none;stroke:rgb(0,0,0);stroke-width:1;stroke-linecap:round"></path><path d="M-121.05808279083159,-62.17614766937233L-121.05808279083159,95.91196709571304L-261.0911373924175,-70.79435167396602z" style="fill:rgb(254,250,224); fill-opacity: 0.09"></path><path d="M-236.6548509835709,120.33591107524217L-121.0580827908316,95.91196709571304M-121.0580827908316,-62.17614766937233L-121.0580827908316,95.91196709571304" style="fill:none;stroke:rgb(0,0,0);stroke-width:1;stroke-linecap:round"></path><path d="M-261.0911373924175,-70.79435167396602L-261.0911373924175,87.29376309111935L-376.6879055851569,-46.3704076944369z" style="fill:rgb(254,250,224); fill-opacity: 0.09"></path><path d="M-236.6548509835709,-37.752203689843206L-121.0580827908316,-62.17614766937233" style="fill:none;stroke:rgb(0,0,0);stroke-width:1;stroke-linecap:round"></path><path d="M-121.05808279083159,-62.17614766937233L-261.0911373924175,-70.79435167396602L-376.6879055851569,-46.3704076944369z" style="fill:rgb(254,250,224); fill-opacity: 0.09"></path><path d="M-196.55838069602456,-46.86349424026882L-196.55838069602456,-32.49184649832004L-312.1551488887639,-22.439550260739686z" style="fill:rgb(212,163,115); fill-opacity: 0.4"></path><path d="M-121.05808279083159,95.91196709571304L-236.6548509835709,120.33591107524217L-261.0911373924175,87.29376309111935z" style="fill:rgb(254,250,224); fill-opacity: 0.09"></path><path d="M-183.82810216778984,-46.08002109741857L-196.55838069602456,-46.86349424026882L-312.1551488887639,-22.439550260739686zM-183.82810216778984,-31.708373355469785L-299.4248703605292,-7.284429375940649L-196.55838069602456,-32.49184649832004zM-299.4248703605292,-7.284429375940649L-183.82810216778984,-31.708373355469785L-183.82810216778984,-46.08002109741857z" style="fill:rgb(212,163,115); fill-opacity: 0.4"></path><path d="M-261.0911373924175,87.29376309111935L-376.6879055851569,111.71770707064846L-376.6879055851569,-46.3704076944369zM-236.6548509835709,120.33591107524217L-121.05808279083159,95.91196709571304L-121.05808279083159,-62.17614766937233zM-236.6548509835709,120.33591107524217L-376.6879055851569,111.71770707064846L-261.0911373924175,87.29376309111935z" style="fill:rgb(254,250,224); fill-opacity: 0.09"></path><path d="M-196.55838069602456,-32.49184649832004L-312.1551488887639,-8.067902518790902L-312.1551488887639,-22.439550260739686zM-299.4248703605292,-7.284429375940649L-312.1551488887639,-8.067902518790902L-196.55838069602456,-32.49184649832004zM-299.4248703605292,-21.65607711788943L-183.82810216778984,-46.08002109741857L-312.1551488887639,-22.439550260739686zM-299.4248703605292,-21.65607711788943L-299.4248703605292,-7.284429375940649L-183.82810216778984,-46.08002109741857z" style="fill:rgb(212,163,115); fill-opacity: 0.4"></path><path d="M-236.6548509835709,-37.7522036898432L-121.05808279083159,-62.17614766937233L-376.6879055851569,-46.3704076944369z" style="fill:rgb(254,250,224); fill-opacity: 0.09"></path><path d="M-376.6879055851569,-46.3704076944369L-376.6879055851569,111.71770707064846M-376.6879055851569,111.71770707064846L-236.6548509835709,120.33591107524217" style="fill:none;stroke:rgb(0,0,0);stroke-width:1;stroke-linecap:round"></path><path d="M-236.6548509835709,-37.7522036898432L-236.6548509835709,120.33591107524217L-121.05808279083159,-62.17614766937233z" style="fill:rgb(254,250,224); fill-opacity: 0.09"></path><path d="M-376.6879055851569,-46.3704076944369L-236.6548509835709,-37.752203689843206M-413.786515019122,85.1792857916509L-337.37836808854195,75.24672876002033M-413.786515019122,106.23336919596106L-337.37836808854195,75.24672876002033M-395.13699405214004,107.38113660515373L-337.37836808854195,75.24672876002033M-395.13699405214004,86.32705320084357L-337.37836808854195,75.24672876002033" style="fill:none;stroke:rgb(0,0,0);stroke-width:1;stroke-linecap:round"></path><path d="M-376.6879055851569,-46.3704076944369L-376.6879055851569,111.71770707064846L-236.6548509835709,-37.7522036898432z" style="fill:rgb(254,250,224); fill-opacity: 0.09"></path><path d="M-312.1551488887639,-22.439550260739686L-312.1551488887639,-8.067902518790902M-312.1551488887639,-8.067902518790902L-299.4248703605292,-7.284429375940649M-312.1551488887639,-22.439550260739686L-299.4248703605292,-21.65607711788943" style="fill:none;stroke:rgb(0,0,0);stroke-width:1;stroke-linecap:round"></path><path d="M-312.1551488887639,-22.439550260739686L-312.1551488887639,-8.067902518790902L-299.4248703605292,-21.65607711788943zM-312.1551488887639,-8.067902518790902L-299.4248703605292,-7.284429375940649L-299.4248703605292,-21.65607711788943z" style="fill:rgb(212,163,115); fill-opacity: 0.4"></path><path d="M-299.4248703605292,-21.65607711788943L-299.4248703605292,-7.284429375940649" style="fill:none;stroke:rgb(0,0,0);stroke-width:1;stroke-linecap:round"></path><path d="M-376.6879055851569,111.71770707064846L-236.6548509835709,120.33591107524217L-236.6548509835709,-37.7522036898432z" style="fill:rgb(254,250,224); fill-opacity: 0.09"></path><path d="M-236.6548509835709,-37.752203689843206L-236.6548509835709,120.33591107524217" style="fill:none;stroke:rgb(0,0,0);stroke-width:1;stroke-linecap:round"></path><path d="M-413.7865174515133,106.23337085798349L-413.7865174515133,85.17928784704843L-337.3783697529369,75.24672957374757zM-395.13699683297955,107.38113824573125L-413.7865174515133,106.23337085798349L-337.3783697529369,75.24672957374757zM-413.7865174515133,85.17928784704843L-395.13699683297955,86.32705523479616L-337.3783697529369,75.24672957374757zM-395.13699683297955,86.32705523479616L-395.13699683297955,107.38113824573125L-337.3783697529369,75.24672957374757z" style="fill:rgb(204,213,174); fill-opacity: 0.4"></path><path d="M-452.2573335279338,-51.59130800862081L-452.2573335279338,140.62445156493578M-452.2573335279338,140.62445156493578L-547.4073818476893,160.72829604211356M-452.2573335279338,140.62445156493578L-281.99431283440197,151.10313069501746M-452.2573335279338,-51.59130800862081L-547.4073818476893,-31.48746353144307M-452.2573335279338,-51.59130800862081L-281.99431283440197,-41.112628878539205M-413.786515019122,85.1792857916509L-413.786515019122,106.23336919596106M-413.786515019122,106.23336919596106L-395.13699405214004,107.38113660515373M-413.78651731974037,85.17928757498562L-413.78651731974037,106.23337097929577M-413.78651731974037,106.23337097929577L-508.9365656394959,126.33721545647353M-413.78651731974037,106.23337097929577L-395.1369963527584,107.38113838848844M-413.786515019122,85.1792857916509L-395.13699405214004,86.32705320084357M-413.78651731974037,85.17928757498562L-508.9365656394959,105.28313205216337M-413.78651731974037,85.17928757498562L-395.1369963527584,86.32705498417829" style="fill:none;stroke:rgb(0,0,0);stroke-width:1;stroke-linecap:round"></path><path d="M-395.1369963527584,107.38113838848844L-413.78651731974037,106.23337097929577L-413.78651731974037,85.17928757498561z" style="fill:rgb(212,163,115); fill-opacity: 0.4"></path><path d="M-413.7865174515133,85.17928784704843L-413.7865174515133,106.23337085798349L-395.13699683297955,107.38113824573125z" style="fill:rgb(204,213,174); fill-opacity: 0.4"></path><path d="M-395.1369963527584,86.32705498417828L-395.1369963527584,107.38113838848844L-413.78651731974037,85.17928757498561z" style="fill:rgb(212,163,115); fill-opacity: 0.4"></path><path d="M-413.7865174515133,85.17928784704843L-395.13699683297955,107.38113824573125L-395.13699683297955,86.32705523479616z" style="fill:rgb(204,213,174); fill-opacity: 0.4"></path><path d="M-395.13699405214004,107.38113660515373L-395.13699405214004,86.32705320084357M-490.28704467251396,127.4849828656662L-395.1369963527584,107.38113838848844M-395.1369963527584,86.32705498417829L-395.1369963527584,107.38113838848844M-490.28704467251396,106.43089946135603L-395.1369963527584,86.32705498417829" style="fill:none;stroke:rgb(0,0,0);stroke-width:1;stroke-linecap:round"></path><path d="M-281.99431283440197,151.10313069501743L-452.25733352793384,140.62445156493578L-452.25733352793384,-51.59130800862082zM-452.25733352793384,-51.59130800862082L-452.25733352793384,140.62445156493578L-547.4073818476893,-31.487463531443066zM-281.99431283440197,-41.11262887853921L-281.99431283440197,151.10313069501743L-452.25733352793384,-51.59130800862082z" style="fill:rgb(254,250,224); fill-opacity: 0.09"></path><path d="M-413.78651731974037,85.17928757498561L-413.78651731974037,106.23337097929577L-508.9365656394958,105.28313205216337zM-395.1369963527584,86.32705498417828L-413.78651731974037,85.17928757498561L-508.9365656394958,105.28313205216337zM-395.1369963527584,107.38113838848844L-490.28704467251384,127.48498286566618L-413.78651731974037,106.23337097929577z" style="fill:rgb(212,163,115); fill-opacity: 0.4"></path><path d="M-377.1443611541574,171.20697517219517L-281.99431283440197,151.10313069501746M-281.99431283440197,-41.112628878539205L-281.99431283440197,151.10313069501746" style="fill:none;stroke:rgb(0,0,0);stroke-width:1;stroke-linecap:round"></path><path d="M-490.28704467251384,127.48498286566618L-395.1369963527584,107.38113838848844L-395.1369963527584,86.32705498417828z" style="fill:rgb(212,163,115); fill-opacity: 0.4"></path><path d="M-281.99431283440197,-41.11262887853921L-452.25733352793384,-51.59130800862082L-547.4073818476893,-31.487463531443066z" style="fill:rgb(254,250,224); fill-opacity: 0.09"></path><path d="M-377.1443611541574,-21.008784401361467L-281.99431283440197,-41.112628878539205" style="fill:none;stroke:rgb(0,0,0);stroke-width:1;stroke-linecap:round"></path><path d="M-281.99431283440197,151.10313069501743L-377.1443611541574,171.20697517219514L-452.25733352793384,140.62445156493578zM-452.25733352793384,140.62445156493578L-547.4073818476893,160.72829604211358L-547.4073818476893,-31.487463531443066z" style="fill:rgb(254,250,224); fill-opacity: 0.09"></path><path d="M-413.78651731974037,106.23337097929577L-508.9365656394958,126.3372154564735L-508.9365656394958,105.28313205216337zM-490.28704467251384,127.48498286566618L-508.9365656394958,126.3372154564735L-413.78651731974037,106.23337097929577z" style="fill:rgb(212,163,115); fill-opacity: 0.4"></path><path d="M-377.1443611541574,171.20697517219514L-547.4073818476893,160.72829604211358L-452.25733352793384,140.62445156493578z" style="fill:rgb(254,250,224); fill-opacity: 0.09"></path><path d="M-490.28704467251384,106.43089946135603L-395.1369963527584,86.32705498417828L-508.9365656394958,105.28313205216337zM-490.28704467251384,106.43089946135603L-490.28704467251384,127.48498286566618L-395.1369963527584,86.32705498417828z" style="fill:rgb(212,163,115); fill-opacity: 0.4"></path><path d="M-377.1443611541574,171.20697517219514L-281.99431283440197,151.10313069501743L-281.99431283440197,-41.11262887853921z" style="fill:rgb(254,250,224); fill-opacity: 0.09"></path><path d="M-547.4073818476893,-31.48746353144307L-547.4073818476893,160.72829604211356M-547.4073818476893,160.72829604211356L-377.1443611541574,171.20697517219517M-547.4073818476893,-31.48746353144307L-377.1443611541574,-21.008784401361467" style="fill:none;stroke:rgb(0,0,0);stroke-width:1;stroke-linecap:round"></path><path d="M-377.1443611541574,-21.00878440136146L-281.99431283440197,-41.11262887853921L-547.4073818476893,-31.487463531443066z" style="fill:rgb(254,250,224); fill-opacity: 0.09"></path><path d="M-508.9365656394959,105.28313205216337L-508.9365656394959,126.33721545647353M-508.9365656394959,126.33721545647353L-490.28704467251396,127.4849828656662M-508.9365656394959,105.28313205216337L-490.28704467251396,106.43089946135603M-584.9677529093136,155.8831309038281L-498.0750682180518,136.34898742946388M-584.9677529093136,187.25152587101863L-498.0750682180518,136.34898742946388M-557.1819059357317,188.96157996031963L-498.0750682180518,136.34898742946388M-557.1819059357317,157.59318499312909L-498.0750682180518,136.34898742946388" style="fill:none;stroke:rgb(0,0,0);stroke-width:1;stroke-linecap:round"></path><path d="M-508.9365656394958,105.28313205216337L-508.9365656394958,126.3372154564735L-490.28704467251384,106.43089946135603zM-508.9365656394958,126.3372154564735L-490.28704467251384,127.48498286566618L-490.28704467251384,106.43089946135603z" style="fill:rgb(212,163,115); fill-opacity: 0.4"></path><path d="M-490.28704467251396,106.43089946135603L-490.28704467251396,127.4849828656662" style="fill:none;stroke:rgb(0,0,0);stroke-width:1;stroke-linecap:round"></path><path d="M-547.4073818476893,-31.487463531443066L-547.4073818476893,160.72829604211358L-377.1443611541574,-21.00878440136146zM-377.1443611541574,-21.00878440136146L-377.1443611541574,171.20697517219514L-281.99431283440197,-41.11262887853921zM-547.4073818476893,160.72829604211358L-377.1443611541574,171.20697517219514L-377.1443611541574,-21.00878440136146z" style="fill:rgb(254,250,224); fill-opacity: 0.09"></path><path d="M-377.1443611541574,-21.008784401361467L-377.1443611541574,171.20697517219517M-637.6949513641401,-54.22999270150075L-637.6949513641401,205.3450407187182M-637.6949513641401,205.3450407187182L-660.5970195634335,210.1839202086902M-637.6949513641401,205.3450407187182L-407.765681335487,219.4958236275972" style="fill:none;stroke:rgb(0,0,0);stroke-width:1;stroke-linecap:round"></path><path d="M-584.9677569322646,187.25152378242473L-584.9677569322646,155.8831275647217L-498.07506847745503,136.34898807242786zM-557.1819088509897,188.96157793989764L-584.9677569322646,187.25152378242473L-498.07506847745503,136.34898807242786zM-584.9677569322646,155.8831275647217L-557.1819088509897,157.5931817221946L-498.07506847745503,136.34898807242786zM-557.1819088509897,157.5931817221946L-557.1819088509897,188.96157793989764L-498.07506847745503,136.34898807242786z" style="fill:rgb(204,213,174); fill-opacity: 0.4"></path><path d="M-637.6949513641401,-54.22999270150075L-660.5970195634335,-49.39111321152873M-637.6949513641401,-54.22999270150075L-407.765681335487,-40.07920979262176M-584.9677529093136,155.8831309038281L-584.9677529093136,187.25152587101863M-584.9677529093136,187.25152587101863L-557.1819059357317,188.96157996031963M-584.9677570925833,155.88312708407287L-584.9677570925833,187.25152413053365M-584.9677570925833,187.25152413053365L-607.8698252918769,192.0904036205057M-584.9677570925833,187.25152413053365L-557.1819082772022,188.96157833318645" style="fill:none;stroke:rgb(0,0,0);stroke-width:1;stroke-linecap:round"></path><path d="M-637.6949513641401,-54.22999270150077L-637.6949513641401,205.3450407187182L-660.5970195634336,-49.391113211528726z" style="fill:rgb(254,250,224); fill-opacity: 0.09"></path><path d="M-584.9677529093136,155.8831309038281L-557.1819059357317,157.59318499312909M-584.9677570925833,155.88312708407287L-607.8698252918769,160.7220065740449M-584.9677570925833,155.88312708407287L-557.1819082772022,157.59318128672567" style="fill:none;stroke:rgb(0,0,0);stroke-width:1;stroke-linecap:round"></path><path d="M-557.1819082772022,188.96157833318648L-584.9677570925834,187.25152413053365L-584.9677570925834,155.88312708407287z" style="fill:rgb(212,163,115); fill-opacity: 0.4"></path><path d="M-584.9677569322646,155.8831275647217L-584.9677569322646,187.25152378242473L-557.1819088509897,188.96157793989764z" style="fill:rgb(204,213,174); fill-opacity: 0.4"></path><path d="M-637.6949513641401,205.3450407187182L-660.5970195634336,210.1839202086902L-660.5970195634336,-49.391113211528726z" style="fill:rgb(254,250,224); fill-opacity: 0.09"></path><path d="M-660.5970195634335,-49.39111321152873L-660.5970195634335,210.1839202086902M-660.5970195634335,210.1839202086902L-430.6677495347804,224.3347031175692" style="fill:none;stroke:rgb(0,0,0);stroke-width:1;stroke-linecap:round"></path><path d="M-557.1819082772022,157.59318128672567L-557.1819082772022,188.96157833318648L-584.9677570925834,155.88312708407287z" style="fill:rgb(212,163,115); fill-opacity: 0.4"></path><path d="M-584.9677569322646,155.8831275647217L-557.1819088509897,188.96157793989764L-557.1819088509897,157.5931817221946z" style="fill:rgb(204,213,174); fill-opacity: 0.4"></path><path d="M-557.1819059357317,188.96157996031963L-557.1819059357317,157.59318499312909M-580.0839764764958,193.8004578231585L-557.1819082772022,188.96157833318645M-557.1819082772022,157.59318128672567L-557.1819082772022,188.96157833318645" style="fill:none;stroke:rgb(0,0,0);stroke-width:1;stroke-linecap:round"></path><path d="M-584.9677570925834,155.88312708407287L-584.9677570925834,187.25152413053365L-607.8698252918769,160.7220065740449z" style="fill:rgb(212,163,115); fill-opacity: 0.4"></path><path d="M-580.0839764764958,162.4320607766977L-557.1819082772022,157.59318128672567" style="fill:none;stroke:rgb(0,0,0);stroke-width:1;stroke-linecap:round"></path><path d="M-407.765681335487,219.4958236275972L-637.6949513641401,205.3450407187182L-637.6949513641401,-54.22999270150077z" style="fill:rgb(254,250,224); fill-opacity: 0.09"></path><path d="M-557.1819082772022,157.59318128672567L-584.9677570925834,155.88312708407287L-607.8698252918769,160.7220065740449zM-557.1819082772022,188.96157833318648L-580.0839764764958,193.8004578231585L-584.9677570925834,187.25152413053365zM-584.9677570925834,187.25152413053365L-607.8698252918769,192.0904036205057L-607.8698252918769,160.7220065740449zM-580.0839764764958,193.8004578231585L-557.1819082772022,188.96157833318648L-557.1819082772022,157.59318128672567zM-580.0839764764958,193.8004578231585L-607.8698252918769,192.0904036205057L-584.9677570925834,187.25152413053365z" style="fill:rgb(212,163,115); fill-opacity: 0.4"></path><path d="M-430.6677495347804,224.33470311756926L-660.5970195634336,210.1839202086902L-637.6949513641401,205.3450407187182z" style="fill:rgb(254,250,224); fill-opacity: 0.09"></path><path d="M-660.5970195634335,-49.39111321152873L-430.6677495347804,-35.240330302649745" style="fill:none;stroke:rgb(0,0,0);stroke-width:1;stroke-linecap:round"></path><path d="M-580.0839764764958,162.4320607766977L-557.1819082772022,157.59318128672567L-607.8698252918769,160.7220065740449z" style="fill:rgb(212,163,115); fill-opacity: 0.4"></path><path d="M-607.8698252918769,160.7220065740449L-607.8698252918769,192.0904036205057M-607.8698252918769,192.0904036205057L-580.0839764764958,193.8004578231585" style="fill:none;stroke:rgb(0,0,0);stroke-width:1;stroke-linecap:round"></path><path d="M-580.0839764764958,162.4320607766977L-580.0839764764958,193.8004578231585L-557.1819082772022,157.59318128672567z" style="fill:rgb(212,163,115); fill-opacity: 0.4"></path><path d="M-607.8698252918769,160.7220065740449L-580.0839764764958,162.4320607766977" style="fill:none;stroke:rgb(0,0,0);stroke-width:1;stroke-linecap:round"></path><path d="M-607.8698252918769,160.7220065740449L-607.8698252918769,192.0904036205057L-580.0839764764958,162.4320607766977zM-607.8698252918769,192.0904036205057L-580.0839764764958,193.8004578231585L-580.0839764764958,162.4320607766977z" style="fill:rgb(212,163,115); fill-opacity: 0.4"></path><path d="M-407.765681335487,-40.07920979262178L-637.6949513641401,-54.22999270150077L-660.5970195634336,-49.391113211528726z" style="fill:rgb(254,250,224); fill-opacity: 0.09"></path><path d="M-580.0839764764958,162.4320607766977L-580.0839764764958,193.8004578231585" style="fill:none;stroke:rgb(0,0,0);stroke-width:1;stroke-linecap:round"></path><path d="M-407.765681335487,219.4958236275972L-430.6677495347804,224.33470311756926L-637.6949513641401,205.3450407187182zM-407.765681335487,-40.07920979262178L-407.765681335487,219.4958236275972L-637.6949513641401,-54.22999270150077zM-660.5970195634336,-49.391113211528726L-660.5970195634336,210.1839202086902L-430.6677495347804,-35.24033030264974z" style="fill:rgb(254,250,224); fill-opacity: 0.09"></path><path d="M-430.6677495347804,224.3347031175692L-407.765681335487,219.4958236275972M-407.765681335487,-40.07920979262176L-407.765681335487,219.4958236275972" style="fill:none;stroke:rgb(0,0,0);stroke-width:1;stroke-linecap:round"></path><path d="M-660.5970195634336,210.1839202086902L-430.6677495347804,224.33470311756926L-430.6677495347804,-35.24033030264974zM-430.6677495347804,-35.24033030264974L-407.765681335487,-40.07920979262178L-660.5970195634336,-49.391113211528726zM-430.6677495347804,224.33470311756926L-407.765681335487,219.4958236275972L-407.765681335487,-40.07920979262178z" style="fill:rgb(254,250,224); fill-opacity: 0.09"></path><path d="M-430.6677495347804,-35.240330302649745L-407.765681335487,-40.07920979262176M-430.6677495347804,-35.240330302649745L-430.6677495347804,224.3347031175692" style="fill:none;stroke:rgb(0,0,0);stroke-width:1;stroke-linecap:round"></path><path d="M-430.6677495347804,-35.24033030264974L-430.6677495347804,224.33470311756926L-407.765681335487,-40.07920979262178z" style="fill:rgb(254,250,224); fill-opacity: 0.09"></path></svg>